PathFileType	4	(X/Y/Z)
DataRate	CameraRate	NumFrames	NumMarkers	Units	OrigDataRate	OrigDataStartFrame	OrigNumFrames	
  100.0	  100.0	    6	     55	     mm	  100.0	      259	    516
Frame#	Time	LASI			RASI			LPSI			RPSI			RTH1			RTH2			RTH3			RLFC			RMFC			LTH1			LTH2			LTH3			LLFC			LMFC			RTB1			RTB2			RTB3			RLMAL			RMMAL			LTB1			LTB2			LTB3			LMMAL			LLMAL			RCAL			RTOE			RMT5			LCAL			LTOE			LMT5			LACR			RACR			CLAV			LASH			LPSH			RASH			RPSH			RUA1			RUA2			RUA3			RLEL			RMEL			LUA1			LUA2			LUA3			LLEL			LMEL			RFAsuperior			RFAradius			RFAulna			LFAsuperior			LFAradius			LFAulna			RHJC			LHJC			
		X1	Y1	Z1	X2	Y2	Z2	X3	Y3	Z3	X4	Y4	Z4	X5	Y5	Z5	X6	Y6	Z6	X7	Y7	Z7	X8	Y8	Z8	X9	Y9	Z9	X10	Y10	Z10	X11	Y11	Z11	X12	Y12	Z12	X13	Y13	Z13	X14	Y14	Z14	X15	Y15	Z15	X16	Y16	Z16	X17	Y17	Z17	X18	Y18	Z18	X19	Y19	Z19	X20	Y20	Z20	X21	Y21	Z21	X22	Y22	Z22	X23	Y23	Z23	X24	Y24	Z24	X25	Y25	Z25	X26	Y26	Z26	X27	Y27	Z27	X28	Y28	Z28	X29	Y29	Z29	X30	Y30	Z30	X31	Y31	Z31	X32	Y32	Z32	X33	Y33	Z33	X34	Y34	Z34	X35	Y35	Z35	X36	Y36	Z36	X37	Y37	Z37	X38	Y38	Z38	X39	Y39	Z39	X40	Y40	Z40	X41	Y41	Z41	X42	Y42	Z42	X43	Y43	Z43	X44	Y44	Z44	X45	Y45	Z45	X46	Y46	Z46	X47	Y47	Z47	X48	Y48	Z48	X49	Y49	Z49	X50	Y50	Z50	X51	Y51	Z51	X52	Y52	Z52	X53	Y53	Z53	X54	Y54	Z54	X55	Y55	Z55	

262	2.62000	540.23455	1030.89524	-382.73654	276.88101	1030.77724	-381.69561	449.69539	1080.25353	-575.98196	368.45785	1077.99048	-576.20636	217.41541	894.86009	-447.95666	234.19231	760.88423	-400.63299	245.23871	654.51371	-489.45197	246.31607	543.24762	-481.28586	374.30432	530.94017	-478.89006	594.43003	911.60944	-462.78594	581.18310	791.55181	-407.76711	567.75286	662.89097	-511.28297	564.69295	548.34811	-507.92758	444.99520	529.14950	-486.57531	290.95121	402.02605	-455.30910	231.60807	312.14990	-511.32986	289.19585	206.78043	-495.41604	246.17577	119.69669	-559.32555	333.49948	120.41684	-540.77972	523.19003	428.23331	-475.38582	582.32033	359.31820	-549.75607	525.83173	224.02377	-505.62217	476.33018	122.81624	-533.89256	558.55365	115.43651	-569.16202	296.24640	79.93158	-636.10531	286.91938	74.41269	-399.34513	197.92729	54.06550	-429.22982	499.86176	80.59589	-638.01462	543.12193	81.23059	-406.36607	618.27741	48.38948	-446.90274	560.81462	1567.08926	-487.75640	262.74965	1551.22130	-513.44338	390.05188	1509.01852	-418.23844	573.38615	1517.40974	-424.34485	581.02901	1521.94118	-562.66810	251.94229	1515.96512	-451.83237	253.81500	1497.60105	-594.35905	156.36799	1518.95697	-555.97455	103.86845	1433.87179	-577.85925	49.37862	1485.29455	-549.76634	-47.16485	1476.79855	-534.75120	-37.75816	1396.57306	-533.61158	674.59835	1541.92437	-525.02671	730.20545	1457.47001	-542.49515	784.26541	1509.96879	-512.57237	872.32079	1508.92481	-489.48056	881.21605	1430.70259	-491.77367	-85.22881	1482.28877	-464.42405	-79.26028	1458.06701	-262.35741	-145.97501	1454.43294	-282.47144	894.42016	1516.25243	-367.27857	854.22452	1473.22443	-222.73080	920.35335	1481.83392	-226.30168	303.24420	959.49244	-449.53816	495.08227	981.62440	-464.06226	
263	2.63000	540.24988	1030.88334	-382.76101	276.94221	1030.79858	-381.69707	449.73151	1080.25143	-576.01562	368.50644	1077.99114	-576.29222	217.42127	894.88281	-447.98929	234.21533	760.92116	-400.57844	245.05424	654.52247	-489.40856	246.31008	543.24606	-481.29114	374.30414	530.94202	-478.88433	594.45769	911.60784	-462.83091	581.19164	791.54473	-407.81041	567.78801	662.90335	-511.33204	564.69973	548.35938	-507.95604	444.99408	529.13888	-486.61451	290.99325	402.02734	-455.32317	231.64810	312.13601	-511.31869	289.19265	206.78057	-495.42831	246.18918	119.69459	-559.32121	333.50413	120.41621	-540.78483	523.17636	428.15997	-475.45066	582.16748	359.28043	-549.68751	525.84535	224.02372	-505.62611	476.32838	122.82994	-533.89247	558.56223	115.43508	-569.16592	296.25390	79.92484	-636.10205	286.94509	74.41842	-399.34925	197.93035	54.06030	-429.23264	499.87910	80.59556	-638.01509	543.13703	81.23185	-406.37835	618.28606	48.38699	-446.90993	560.82014	1567.22540	-487.95336	262.76975	1551.22040	-513.44724	390.07984	1509.00289	-418.24862	573.41349	1517.40446	-424.36951	581.06343	1521.93863	-562.68540	253.90342	1514.79178	-451.74910	253.83667	1497.59651	-594.38457	156.46372	1519.03641	-556.02922	103.80388	1433.79248	-577.83303	49.40018	1485.32456	-549.76508	-47.14022	1476.85353	-534.73203	-37.79233	1396.61705	-533.56837	674.61326	1541.84887	-525.05465	730.23620	1457.44650	-542.53050	784.29529	1509.95321	-512.65245	872.33985	1508.91875	-489.54831	881.24768	1430.69388	-491.84637	-85.22840	1482.34762	-464.38570	-79.19499	1458.06494	-262.33810	-145.95864	1454.46552	-282.43082	894.47166	1516.23927	-367.33052	854.26953	1473.21144	-222.80518	920.43110	1481.82659	-226.37339	303.27126	959.51035	-449.55788	495.11218	981.61349	-464.08675	
264	2.64000	540.25822	1030.87590	-382.80840	277.01074	1030.80693	-381.74561	449.76259	1080.24872	-576.05495	368.56195	1077.98362	-576.39137	217.41361	894.87419	-448.01474	234.22324	760.95765	-400.55773	244.84930	654.53828	-489.35135	246.28671	543.26012	-481.29267	374.31079	530.93824	-478.89610	594.48363	911.61205	-462.87978	581.20383	791.54427	-407.85434	567.83378	662.91027	-511.37876	564.71535	548.36233	-507.97557	444.99664	529.13504	-486.65453	291.01773	401.99517	-455.36080	231.67941	312.12501	-511.31749	289.19283	206.78184	-495.43593	246.20676	119.68688	-559.32509	333.51061	120.41477	-540.78468	523.15974	428.07900	-475.52069	582.02264	359.32352	-549.64243	525.85821	224.01262	-505.63541	476.33174	122.84459	-533.88693	558.57580	115.43713	-569.17551	296.27634	79.92032	-636.11103	286.95210	74.40268	-399.34309	197.91107	54.02349	-429.26842	499.90076	80.59901	-638.01349	543.15386	81.22498	-406.39427	618.30194	48.37880	-446.91922	560.91164	1566.96347	-487.61373	262.82623	1551.20312	-513.46150	390.14379	1508.98006	-418.27830	573.44463	1517.40163	-424.38916	581.11570	1521.92932	-562.69787	256.98895	1513.11260	-451.90034	253.87244	1497.60183	-594.41235	156.54372	1519.06582	-556.07451	103.63136	1433.54093	-577.67512	49.43586	1485.34724	-549.75672	-47.12206	1476.88522	-534.70980	-37.62226	1396.53922	-533.66290	674.63496	1541.80725	-525.09759	730.26251	1457.41996	-542.55798	784.31949	1509.93142	-512.71686	872.35990	1508.91211	-489.61347	881.27473	1430.68416	-491.93656	-85.22436	1482.40399	-464.36223	-79.11875	1458.05478	-262.31966	-145.91659	1454.48464	-282.40215	894.52099	1516.21663	-367.39386	854.34851	1473.20526	-222.83530	920.51904	1481.81345	-226.46196	303.30599	959.51526	-449.60934	495.14840	981.60590	-464.13754	
265	2.65000	540.26313	1030.87816	-382.86790	277.05666	1030.80830	-381.84137	449.78428	1080.23952	-576.09423	368.61586	1077.97667	-576.48402	217.40346	894.85083	-448.03086	234.19236	760.93793	-400.66274	244.80104	654.54462	-489.34757	246.27426	543.27892	-481.30534	374.28344	530.91903	-478.90844	594.50348	911.61744	-462.92166	581.22030	791.55104	-407.88716	567.85882	662.90651	-511.40955	564.73489	548.35502	-507.98265	445.00791	529.13894	-486.68396	290.81033	402.04501	-455.30194	231.65904	312.14023	-511.34340	289.19505	206.78480	-495.43143	246.22195	119.67898	-559.33948	333.51920	120.41318	-540.77843	523.15450	428.04839	-475.55349	582.02578	359.39751	-549.67333	525.86056	224.00310	-505.64173	476.34538	122.84929	-533.87676	558.59073	115.43446	-569.18737	296.30898	79.91595	-636.13097	286.94323	74.38155	-399.33321	197.88772	53.97762	-429.31817	499.92134	80.60191	-638.01501	543.16862	81.21305	-406.40966	618.31669	48.37057	-446.92157	561.02136	1566.47153	-486.98107	262.94582	1551.15752	-513.50922	390.21949	1508.96404	-418.31290	573.47439	1517.39777	-424.40281	581.17277	1521.91820	-562.72079	259.68830	1511.75944	-452.14373	253.91914	1497.61284	-594.43335	156.58167	1519.03559	-556.10421	103.48848	1433.30458	-577.51635	49.48136	1485.35916	-549.74717	-47.11468	1476.89970	-534.68586	-37.35645	1396.40655	-533.82869	674.66233	1541.79160	-525.14131	730.28381	1457.39547	-542.60023	784.33989	1509.90897	-512.75809	872.38254	1508.90565	-489.67373	881.29777	1430.67450	-492.02975	-85.18779	1482.42254	-464.37466	-79.03101	1458.04833	-262.33049	-145.82386	1454.47452	-282.40840	894.56656	1516.18721	-367.45798	854.45815	1473.20312	-222.81212	920.61018	1481.79823	-226.54648	303.33746	959.51149	-449.68741	495.18051	981.60557	-464.20309	
266	2.66000	540.27116	1030.88876	-382.92254	277.07084	1030.81423	-381.93442	449.79403	1080.22576	-576.12876	368.64621	1077.97283	-576.53777	217.40517	894.83413	-448.04622	234.13202	760.86152	-400.86808	244.92232	654.54409	-489.40960	246.28450	543.29362	-481.33356	374.22544	530.89182	-478.91791	594.51368	911.62011	-462.95196	581.23866	791.55791	-407.90282	567.83657	662.89293	-511.41301	564.74805	548.34822	-507.97941	445.02733	529.14450	-486.69498	290.30406	402.24012	-455.09019	231.61697	312.16108	-511.39083	289.19676	206.78549	-495.42366	246.22728	119.67575	-559.35474	333.52839	120.41026	-540.77216	523.15850	428.05953	-475.54901	582.19428	359.44433	-549.77009	525.85510	224.00469	-505.63982	476.36322	122.83913	-533.87325	558.60555	115.42496	-569.19902	296.33645	79.91026	-636.15076	286.93191	74.37416	-399.32687	197.88990	53.96018	-429.34776	499.93606	80.60166	-638.01934	543.17760	81.20472	-406.41795	618.32736	48.36201	-446.91560	561.10022	1566.00769	-486.38976	263.10074	1551.10100	-513.58463	390.26947	1508.95889	-418.32844	573.49957	1517.39106	-424.41041	581.21585	1521.91401	-562.75597	260.75529	1511.28697	-452.28251	253.96214	1497.61966	-594.44162	156.59204	1518.98889	-556.12575	103.49652	1433.25300	-577.49086	49.52963	1485.35919	-549.74397	-47.11279	1476.90734	-534.66540	-37.18423	1396.32518	-533.93637	674.69052	1541.78255	-525.17263	730.30283	1457.38002	-542.65319	784.36275	1509.89244	-512.78084	872.40811	1508.89727	-489.73017	881.31806	1430.66343	-492.10317	-85.12759	1482.40580	-464.41005	-78.94595	1458.05559	-262.37820	-145.71463	1454.45241	-282.44022	894.60889	1516.15977	-367.50827	854.56841	1473.19893	-222.78770	920.70056	1481.78260	-226.61269	303.35515	959.50966	-449.75322	495.19825	981.61077	-464.25909	
267	2.67000	540.28359	1030.90299	-382.96558	277.06993	1030.82463	-381.97130	449.79060	1080.21638	-576.15664	368.63480	1077.96178	-576.53047	217.42264	894.82471	-448.07408	234.08037	760.77695	-401.06541	245.07925	654.54769	-489.49015	246.31721	543.30022	-481.37273	374.19945	530.88149	-478.94748	594.51584	911.61956	-462.97505	581.25584	791.55797	-407.91346	567.79325	662.87404	-511.39992	564.75078	548.34849	-507.97585	445.04820	529.14522	-486.69798	289.84871	402.44097	-454.88714	231.61931	312.15213	-511.43203	289.19724	206.78067	-495.42700	246.22170	119.67556	-559.36124	333.53423	120.40595	-540.77389	523.16400	428.07157	-475.53904	582.41771	359.43397	-549.87109	525.85272	224.01372	-505.63469	476.37472	122.82059	-533.88406	558.61808	115.41442	-569.20724	296.34503	79.90530	-636.16054	286.92920	74.38379	-399.32744	197.92203	53.97603	-429.34209	499.94173	80.59959	-638.02234	543.17897	81.20531	-406.41683	618.33480	48.35246	-446.91164	561.15212	1565.78395	-486.11810	263.22148	1551.06570	-513.64697	390.28363	1508.95829	-418.31666	573.52179	1517.38466	-424.41352	581.23891	1521.91929	-562.79098	260.35011	1511.50330	-452.24343	253.98921	1497.62007	-594.43643	156.60318	1518.98287	-556.13153	103.65521	1433.39214	-577.62127	49.57446	1485.35210	-549.74964	-47.10625	1476.91028	-534.65377	-37.18192	1396.33440	-533.92808	674.71510	1541.77697	-525.19271	730.32011	1457.37782	-542.69492	784.39043	1509.88236	-512.79923	872.43555	1508.88788	-489.78330	881.33742	1430.65096	-492.14895	-85.07535	1482.38631	-464.43670	-78.88413	1458.07266	-262.43290	-145.65662	1454.46234	-282.45810	894.65144	1516.14387	-367.54389	854.64999	1473.18837	-222.82947	920.78706	1481.76621	-226.66689	303.35845	959.51168	-449.77038	495.20017	981.61638	-464.28966	
